<svg width="4" height="7" viewBox="0 0 4 7" fill="none" xmlns="http://www.w3.org/2000/svg">
    <path d="M2 2.92308C1.81056 2.92308 1.62888 2.84203 1.49492 2.69777C1.36097 2.55352 1.28571 2.35786 1.28571 2.15385C1.28571 1.94983 1.36097 1.75418 1.49492 1.60992C1.62888 1.46566 1.81056 1.38462 2 1.38462C2.18944 1.38462 2.37112 1.46566 2.50508 1.60992C2.63903 1.75418 2.71429 1.94983 2.71429 2.15385C2.71429 2.25486 2.69581 2.35489 2.65991 2.44822C2.62402 2.54155 2.5714 2.62634 2.50508 2.69777C2.43875 2.7692 2.36001 2.82587 2.27335 2.86452C2.18668 2.90318 2.0938 2.92308 2 2.92308ZM2 0C1.46957 0 0.960859 0.226922 0.585786 0.630847C0.210714 1.03477 0 1.58261 0 2.15385C0 3.76923 2 6.5 2 6.5C2 6.5 4 3.76923 4 2.15385C4 1.58261 3.78929 1.03477 3.41421 0.630847C3.03914 0.226922 2.53043 0 2 0Z"
          fill="#161616"/>
</svg>
